<?xml version="1.0" encoding="utf-8"?>
<svg version="1.1" id="Layer_1" xmlns="http://www.w3.org/2000/svg" xmlns:xlink="http://www.w3.org/1999/xlink" x="0px" y="0px"
	 viewBox="0 0 30 21" style="enable-background:new 0 0 30 21;" xml:space="preserve">
<style type="text/css">
	.st0{fill:#CE1125;}
	.st1{fill:#FFFEFF;}
	.st2{fill:#003399;}
	.st3{fill:#CE1226;}
	.st4{fill:#DC5866;}
</style>
<title>GB_flag</title>
<g>
	<path class="st0" d="M30.8,12.6H17c-0.1,0-0.1,0-0.1,0.1v8.2c0,0.1,0,0.1-0.1,0.1h-3.7c-0.1,0-0.1,0-0.1-0.1v-8.1c0,0,0-0.1,0-0.1
		s-0.1,0-0.1,0H-0.7c-0.1,0-0.1,0-0.1-0.1v-4c0-0.1,0-0.1,0.1-0.1H13c0.1,0,0.1,0,0.1-0.1V0l0,0c0,0,0,0,0.1,0h3.6c0,0,0.1,0,0.1,0
		l0,0v8.3c0,0.1,0,0.1,0.1,0.1h13.9l0,0c0,0,0,0.1,0,0.1V12.6C30.8,12.5,30.8,12.5,30.8,12.6z"/>
	<path class="st1" d="M13.1,0v8.3c0,0.1,0,0.1-0.1,0.1H-0.7c-0.1,0-0.1,0-0.1,0.1v4c0,0.1,0,0.1,0.1,0.1H13c0,0,0.1,0,0.1,0
		s0,0.1,0,0.1v8.1c0,0.1,0,0.1,0.1,0.1h3.6c0.1,0,0.1,0,0.1-0.1v-8.2c0-0.1,0-0.1,0.1-0.1h13.9V14H24l0,0l0,0l6.8,4.5l0,0v0.8
		l-0.1-0.1L22.8,14c0,0-0.1,0-0.1,0h-2.5h0l10.5,6.9h0.1l0,0h-3.7c0,0,0,0-0.1-0.1l-6.2-4l-2.6-1.8c0,0,0,0-0.1,0V21h-6.3v-5.9l0,0
		h-0.1L11,15.6L3,20.9H2.9h-3.8v-2.4h0.1l4.6-3L6,14C6,14,6,14,6,14h-6.9V7H6l0,0l0,0L5,6.3l-5.8-3.8c0,0,0,0-0.1,0V1.7
		c0,0,0,0,0.1,0l5.5,3.6L7.2,7c0,0,0.1,0,0.1,0h2.4l0,0l0,0L7.1,5.2l-7.9-5.2L-0.8,0h3.7c0,0,0,0,0.1,0.1l8.8,5.8c0,0,0,0,0.1,0
		c0,0,0-0.1,0-0.1V0H13.1z M-0.8,21h2.4c0,0,0.1,0,0.1,0l1.5-1l8.5-5.6c0.1,0,0.1-0.1,0.2-0.1V14c0,0,0-0.1,0,0h-2c0,0-0.1,0-0.1,0
		l-7.1,4.7L-0.8,21C-0.8,20.9-0.8,20.9-0.8,21z"/>
	<path class="st1" d="M30.8,8.4H17c-0.1,0-0.1,0-0.1-0.1V0h1.3v6h0.1L25,1.4l2-1.4c0,0,0,0,0.1,0h3.7v2.4l-1.1,0.7L24,7l0,0h6.9
		L30.8,8.4z M30.8,0h-2.3c0,0-0.1,0-0.1,0L18.3,6.7c-0.1,0-0.1,0.1-0.1,0.2c0,0.1,0,0.1,0.1,0.1h2c0,0,0.1,0,0.1,0l3.3-2.2L30.8,0
		C30.8,0.1,30.8,0,30.8,0L30.8,0z"/>
	<path class="st2" d="M27.1,0C27.1,0,27.1,0,27.1,0L25,1.4l-6.7,4.5h-0.1V0H27.1z"/>
	<path class="st2" d="M11.8,0v5.9c0,0,0,0.1,0,0.1c0,0,0,0-0.1,0L3,0.1c0,0,0,0-0.1-0.1L11.8,0z"/>
	<path class="st2" d="M18.2,21v-5.9c0,0,0,0,0.1,0l2.6,1.8l6.1,4.1c0,0,0,0,0.1,0.1L18.2,21z"/>
	<path class="st2" d="M2.9,21L2.9,21l8.2-5.4l0.7-0.5h0.1c0,0,0,0,0,0.1V21H2.9z"/>
	<path class="st2" d="M-0.8,14h6.9c0,0,0,0-0.1,0.1l-2.2,1.4l-4.6,3h-0.1L-0.8,14z"/>
	<path class="st2" d="M-0.8,2.5C-0.8,2.5-0.8,2.5-0.8,2.5L5,6.3L6,7H6H6h-6.8V2.5z"/>
	<path class="st2" d="M30.8,18.5L30.8,18.5L24,14l0,0l0,0h6.9L30.8,18.5z"/>
	<path class="st2" d="M30.8,7H24l0,0l5.7-3.8l1.1-0.7L30.8,7z"/>
	<path class="st3" d="M-0.8,0L-0.8,0l7.9,5.2l2.6,1.7l0,0l0,0H7.3c0,0-0.1,0-0.1,0L4.7,5.3l-5.5-3.6c0,0,0,0-0.1,0L-0.8,0
		C-0.8,0.1-0.9,0-0.8,0z"/>
	<path class="st3" d="M30.8,21L30.8,21l-10.5-7h0h2.5c0,0,0.1,0,0.1,0l7.9,5.2l0.1,0.1V21z"/>
	<path class="st4" d="M16.9,0C16.9,0,16.8,0,16.9,0h-3.7c0,0,0,0-0.1,0H16.9z"/>
	<path class="st4" d="M30.8,12.6C30.8,12.5,30.8,12.5,30.8,12.6V8.5c0,0,0-0.1,0-0.1V12.6z"/>
	<path class="st3" d="M-0.8,21C-0.8,21-0.8,20.9-0.8,21l3.3-2.2L9.7,14c0,0,0.1,0,0.1,0h2l0,0v0.2c0,0-0.1,0.1-0.2,0.1l-8.5,5.6
		l-1.5,1c0,0-0.1,0-0.1,0L-0.8,21L-0.8,21z"/>
	<path class="st3" d="M30.8,0C30.8,0,30.8,0,30.8,0l-7.1,4.8L20.4,7c0,0-0.1,0-0.1,0h-2c-0.1,0-0.1,0-0.1-0.1c0-0.1,0-0.2,0.1-0.2
		l10.1-6.6c0,0,0.1,0,0.1,0L30.8,0L30.8,0z"/>
</g>
</svg>
