<?xml version="1.0" encoding="UTF-8" standalone="no"?>
<!-- Generator: Adobe Illustrator 15.0.0, SVG Export Plug-In  -->

<svg
   xmlns:dc="http://purl.org/dc/elements/1.1/"
   xmlns:cc="http://creativecommons.org/ns#"
   xmlns:rdf="http://www.w3.org/1999/02/22-rdf-syntax-ns#"
   xmlns:svg="http://www.w3.org/2000/svg"
   xmlns="http://www.w3.org/2000/svg"
   xmlns:sodipodi="http://sodipodi.sourceforge.net/DTD/sodipodi-0.dtd"
   xmlns:inkscape="http://www.inkscape.org/namespaces/inkscape"
   version="1.1"
   x="0px"
   y="0px"
   width="400px"
   height="98px"
   viewBox="0 4.747 400 98"
   enable-background="new 0 4.747 400 98"
   xml:space="preserve"
   id="svg22"
   sodipodi:docname="nabla_logo_black.svg"
   inkscape:version="0.92.4 (5da689c313, 2019-01-14)"><metadata
   id="metadata26"><rdf:RDF><cc:Work
       rdf:about=""><dc:format>image/svg+xml</dc:format><dc:type
         rdf:resource="http://purl.org/dc/dcmitype/StillImage" /><dc:title></dc:title></cc:Work></rdf:RDF></metadata><sodipodi:namedview
   pagecolor="#ffffff"
   bordercolor="#666666"
   borderopacity="1"
   objecttolerance="10"
   gridtolerance="10"
   guidetolerance="10"
   inkscape:pageopacity="0"
   inkscape:pageshadow="2"
   inkscape:window-width="1920"
   inkscape:window-height="1001"
   id="namedview24"
   showgrid="false"
   inkscape:zoom="1.695"
   inkscape:cx="172.80128"
   inkscape:cy="112.97005"
   inkscape:window-x="-9"
   inkscape:window-y="-9"
   inkscape:window-maximized="1"
   inkscape:current-layer="layer3" />
<defs
   id="defs2">
</defs>



<g
   inkscape:groupmode="layer"
   id="layer1"
   inkscape:label="Layer 1" /><g
   inkscape:groupmode="layer"
   id="layer2"
   inkscape:label="Layer 2"><g
     style=""
     id="g20">
	<rect
   x="105.375"
   y="13.899"
   fill="none"
   width="405"
   height="125.306"
   id="rect8" />
	<path
   fill="#FFFFFF"
   d="M114.7,15.903h14.82l34.728,53.41v-53.41h15.45v81.164h-14.863l-34.686-53.245v53.245H114.7V15.903z"
   id="path10"
   style="fill:#000000" />
	<path
   fill="#FFFFFF"
   d="M230.944,37.035h15.063v60.031h-15.063v-6.345c-2.94,2.795-5.889,4.81-8.846,6.042   c-2.958,1.232-6.163,1.849-9.617,1.849c-7.752,0-14.458-3.007-20.116-9.021c-5.657-6.014-8.486-13.49-8.486-22.429   c0-9.27,2.737-16.865,8.212-22.788c5.475-5.922,12.124-8.883,19.95-8.883c3.601,0,6.979,0.681,10.14,2.042   c3.159,1.361,6.08,3.403,8.764,6.125V37.035z M215.109,49.395c-4.656,0-8.523,1.646-11.604,4.938   c-3.079,3.292-4.619,7.513-4.619,12.663c0,5.187,1.566,9.454,4.701,12.801c3.135,3.348,6.992,5.021,11.575,5.021   c4.73,0,8.652-1.646,11.769-4.938c3.115-3.292,4.675-7.604,4.675-12.938c0-5.223-1.56-9.453-4.675-12.69   C223.815,51.014,219.875,49.395,215.109,49.395z"
   id="path12"
   style="fill:#000000" />
	<path
   fill="#FFFFFF"
   d="M267.147,13.861v29.795c2.723-2.722,5.665-4.763,8.828-6.125c3.164-1.36,6.548-2.042,10.152-2.042   c7.836,0,14.493,2.961,19.975,8.883c5.48,5.923,8.221,13.518,8.221,22.788c0,8.938-2.833,16.415-8.497,22.429   c-5.665,6.015-12.378,9.021-20.14,9.021c-3.457,0-6.676-0.616-9.655-1.849c-2.979-1.231-5.94-3.246-8.884-6.042v6.345h-14.952   V13.861H267.147z M282.983,49.395c-4.745,0-8.682,1.619-11.808,4.855c-3.127,3.237-4.69,7.468-4.69,12.69   c0,5.334,1.563,9.647,4.69,12.938c3.126,3.292,7.063,4.938,11.808,4.938c4.598,0,8.47-1.673,11.614-5.021   c3.146-3.347,4.718-7.614,4.718-12.801c0-5.149-1.545-9.371-4.635-12.663S287.691,49.395,282.983,49.395z"
   id="path14"
   style="fill:#000000" />
	<path
   fill="#FFFFFF"
   d="M318.098,13.861h15.063v83.205h-15.063V13.861z"
   id="path16"
   style="fill:#000000" />
	<path
   fill="#FFFFFF"
   d="M384.077,37.035h15.063v60.031h-15.063v-6.345c-2.939,2.795-5.888,4.81-8.845,6.042   c-2.958,1.232-6.163,1.849-9.617,1.849c-7.752,0-14.458-3.007-20.116-9.021c-5.657-6.014-8.486-13.49-8.486-22.429   c0-9.27,2.737-16.865,8.212-22.788c5.475-5.922,12.124-8.883,19.95-8.883c3.601,0,6.979,0.681,10.14,2.042   c3.159,1.361,6.08,3.403,8.763,6.125V37.035z M368.243,49.395c-4.656,0-8.523,1.646-11.604,4.938   c-3.079,3.292-4.619,7.513-4.619,12.663c0,5.187,1.566,9.454,4.701,12.801c3.135,3.348,6.992,5.021,11.576,5.021   c4.729,0,8.651-1.646,11.768-4.938c3.115-3.292,4.674-7.604,4.674-12.938c0-5.223-1.559-9.453-4.674-12.69   C376.949,51.014,373.008,49.395,368.243,49.395z"
   id="path18"
   style="fill:#000000" />
</g></g><g
   inkscape:groupmode="layer"
   id="layer3"
   inkscape:label="Layer 3"><g
     id="g854"
     transform="matrix(1.0567909,0,0,1.0307458,-3.4957266,4.7759927)"
     style="fill:#000000"><path
       id="path850"
       d="m 3.9,29.8 c 0.8,-1.6 1.5,-3.2 2.2,-4.8 1.5,-3.1 3.1,-6 5.4,-8.6 0.7,-0.7 1.4,-1.4 2.1,-2 0.9,-0.7 2,-0.9 3.1,-1 3.3,-0.2 6.7,-0.4 10,-0.3 9.2,0.3 18.4,0.8 27.6,1 6.3,0.2 12.6,0.1 19,0 3.7,-0.1 7.5,-0.4 11.2,-0.8 4.6,-0.4 8.5,-2.4 11.9,-5.6 2.5,-2.4 5.1,-4.6 8,-6.5 0.4,-0.3 0.9,-0.6 1.4,-0.8 0.2,-0.1 0.6,-0.1 0.8,-0.1 -0.1,0.3 0,0.6 -0.2,0.8 -0.6,0.8 -1.1,1.6 -1.8,2.3 -4.4,5.3 -8.6,10.6 -12.5,16.1 -4.3,6 -8.4,12.2 -12,18.6 -5.6,9.8 -10.3,20 -13.6,30.7 -0.9,3 -1.6,6 -2.3,9 -0.3,1.4 -1.1,2.6 -1.9,3.8 -3.1,4.3 -6.6,8.1 -10.7,11.4 -0.5,0.4 -1.1,0.8 -1.7,1.1 -0.7,0.4 -1,0.2 -1.4,-0.4 C 45.9,89.3 43.3,84.8 40.8,80.4 34.5,69.3 28.6,58 23.1,46.5 20.9,41.9 18.8,37.3 16.6,32.8 16.3,32.2 16,31.7 15.7,31.1 15.4,30.5 14.9,30.2 14.2,30 11.6,29.4 9,29.4 6.4,29.6 c -0.8,0 -1.6,0.1 -2.5,0.2 z m 31,-1.3 c 0.1,0.3 0.1,0.5 0.2,0.7 1,2.6 1.9,5.2 3,7.7 3.6,8.2 7.9,16 12.6,23.6 1.5,2.4 3.1,4.6 4.8,6.9 0.8,1.1 1.2,1 1.9,-0.1 0.9,-1.3 1.7,-2.6 2.4,-4 3.3,-6.5 6.4,-13 9.7,-19.4 2.6,-5.1 5.3,-10.1 8.6,-14.8 0.2,-0.3 0.4,-0.6 0.7,-1.1 -1.3,-0.1 -2.4,-0.3 -3.6,-0.3 -5.5,-0.1 -11.1,-0.3 -16.6,-0.2 -7,0.1 -14,0.4 -21.1,0.7 -0.8,0 -1.7,0.2 -2.6,0.3 z"
       class="st0"
       inkscape:connector-curvature="0"
       style="fill:#000000" /><path
       id="path852"
       d="M 56.9,63.1 C 56.4,62.5 56,61.9 55.6,61.3 51.4,54.9 47.5,48.3 43.8,41.5 c -1.4,-2.7 -2.7,-5.4 -4,-8.2 -0.2,-0.4 -0.3,-0.9 -0.4,-1.4 -0.1,-0.5 0.1,-0.7 0.6,-0.8 0.8,-0.1 1.1,0 1.5,0.7 4,7.2 7.9,14.3 11.9,21.5 1.4,2.5 2.7,5 4.1,7.5 0.3,0.9 0.1,1.7 -0.6,2.3 z"
       class="st0"
       inkscape:connector-curvature="0"
       style="fill:#000000" /></g></g><style
   id="style848"
   type="text/css">
	.st0{fill:#FFFFFF;}
</style></svg>