<?xml version="1.0" encoding="utf-8"?>
<!-- Generator: Adobe Illustrator 15.0.0, SVG Export Plug-In  -->
<!DOCTYPE svg PUBLIC "-//W3C//DTD SVG 1.1//EN" "http://www.w3.org/Graphics/SVG/1.1/DTD/svg11.dtd" [
	<!ENTITY ns_flows "http://ns.adobe.com/Flows/1.0/">
]>
<svg version="1.1"
	 xmlns="http://www.w3.org/2000/svg" xmlns:xlink="http://www.w3.org/1999/xlink" xmlns:a="http://ns.adobe.com/AdobeSVGViewerExtensions/3.0/"
	 x="0px" y="0px" width="400px" height="98px" viewBox="0 4.747 400 98" enable-background="new 0 4.747 400 98"
	 xml:space="preserve">
<defs>
</defs>
<path fill="#FFFFFF" d="M107.198,4.747c-4.22,3-8.151,6.541-12.354,9.655c-2.006,1.626-4.69,1.697-7.148,1.905
	c-17.308,0.936-34.647,0.321-51.941-0.385c-8.052,0.204-16.349-0.291-24.226,1.499C7.258,22.67,3.453,28.35,0,34.17
	c4.185-0.177,8.442-1.104,12.595-0.291c4.722,6.9,8.301,14.538,12.363,21.841c6.395,12.94,14.167,25.375,20.133,38.543
	c1.328,2.847,2.838,5.483,4.433,8.483h3.371c3.869-5,9.087-8.339,12.847-13.084c2.396-13.068,6.833-25.918,13.223-37.596
	c5.196-9.68,10.492-19.378,16.792-28.393c5.251-5.975,9.354-12.927,14.498-18.927H107.198z M58.882,73.913
	c-3.539-4.185-5.224-9.571-8.496-13.981c-5.03-8.889-10.069-17.786-14.939-26.77c8.233,0.37,16.503,0.686,24.745,0.049
	c7.086-0.596,14.244-0.136,21.304-1.274C73.099,45.448,65.978,59.688,58.882,73.913z"/>
<path fill="#FFFFFF" d="M38.56,34.042c0.814,0.04,2.427,0.135,3.231,0.177c4.677,9.068,9.707,17.944,14.723,26.833
	c1.604,2.965,4.366,5.93,3.159,9.589c-2.539-2.594-4.063-5.91-5.811-9.028C48.691,52.462,43.712,43.208,38.56,34.042z"/>
<g>
	<rect x="105.375" y="13.899" fill="none" width="405" height="125.306"/>
	<path fill="#FFFFFF" d="M114.7,15.903h14.82l34.728,53.41v-53.41h15.45v81.164h-14.863l-34.686-53.245v53.245H114.7V15.903z"/>
	<path fill="#FFFFFF" d="M230.944,37.035h15.063v60.031h-15.063v-6.345c-2.94,2.795-5.889,4.81-8.846,6.042
		c-2.958,1.232-6.163,1.849-9.617,1.849c-7.752,0-14.458-3.007-20.116-9.021c-5.657-6.014-8.486-13.49-8.486-22.429
		c0-9.27,2.737-16.865,8.212-22.788c5.475-5.922,12.124-8.883,19.95-8.883c3.601,0,6.979,0.681,10.14,2.042
		c3.159,1.361,6.08,3.403,8.764,6.125V37.035z M215.109,49.395c-4.656,0-8.523,1.646-11.604,4.938
		c-3.079,3.292-4.619,7.513-4.619,12.663c0,5.187,1.566,9.454,4.701,12.801c3.135,3.348,6.992,5.021,11.575,5.021
		c4.73,0,8.652-1.646,11.769-4.938c3.115-3.292,4.675-7.604,4.675-12.938c0-5.223-1.56-9.453-4.675-12.69
		C223.815,51.014,219.875,49.395,215.109,49.395z"/>
	<path fill="#FFFFFF" d="M267.147,13.861v29.795c2.723-2.722,5.665-4.763,8.828-6.125c3.164-1.36,6.548-2.042,10.152-2.042
		c7.836,0,14.493,2.961,19.975,8.883c5.48,5.923,8.221,13.518,8.221,22.788c0,8.938-2.833,16.415-8.497,22.429
		c-5.665,6.015-12.378,9.021-20.14,9.021c-3.457,0-6.676-0.616-9.655-1.849c-2.979-1.231-5.94-3.246-8.884-6.042v6.345h-14.952
		V13.861H267.147z M282.983,49.395c-4.745,0-8.682,1.619-11.808,4.855c-3.127,3.237-4.69,7.468-4.69,12.69
		c0,5.334,1.563,9.647,4.69,12.938c3.126,3.292,7.063,4.938,11.808,4.938c4.598,0,8.47-1.673,11.614-5.021
		c3.146-3.347,4.718-7.614,4.718-12.801c0-5.149-1.545-9.371-4.635-12.663S287.691,49.395,282.983,49.395z"/>
	<path fill="#FFFFFF" d="M318.098,13.861h15.063v83.205h-15.063V13.861z"/>
	<path fill="#FFFFFF" d="M384.077,37.035h15.063v60.031h-15.063v-6.345c-2.939,2.795-5.888,4.81-8.845,6.042
		c-2.958,1.232-6.163,1.849-9.617,1.849c-7.752,0-14.458-3.007-20.116-9.021c-5.657-6.014-8.486-13.49-8.486-22.429
		c0-9.27,2.737-16.865,8.212-22.788c5.475-5.922,12.124-8.883,19.95-8.883c3.601,0,6.979,0.681,10.14,2.042
		c3.159,1.361,6.08,3.403,8.763,6.125V37.035z M368.243,49.395c-4.656,0-8.523,1.646-11.604,4.938
		c-3.079,3.292-4.619,7.513-4.619,12.663c0,5.187,1.566,9.454,4.701,12.801c3.135,3.348,6.992,5.021,11.576,5.021
		c4.729,0,8.651-1.646,11.768-4.938c3.115-3.292,4.674-7.604,4.674-12.938c0-5.223-1.559-9.453-4.674-12.69
		C376.949,51.014,373.008,49.395,368.243,49.395z"/>
</g>
</svg>
