<?xml version="1.0" encoding="UTF-8" ?>
<!DOCTYPE svg PUBLIC "-//W3C//DTD SVG 1.1//EN" "http://www.w3.org/Graphics/SVG/1.1/DTD/svg11.dtd">
<svg width="12px" height="12px" viewBox="0 0 108 95" version="1.1" xmlns="http://www.w3.org/2000/svg">
<style type="text/css">
	.st0{fill:#000000;}
</style>
<g>
	<path class="st0" d="M3.9,29.8c0.8-1.6,1.5-3.2,2.2-4.8c1.5-3.1,3.1-6,5.4-8.6c0.7-0.7,1.4-1.4,2.1-2c0.9-0.7,2-0.9,3.1-1
		c3.3-0.2,6.7-0.4,10-0.3c9.2,0.3,18.4,0.8,27.6,1c6.3,0.2,12.6,0.1,19,0c3.7-0.1,7.5-0.4,11.2-0.8c4.6-0.4,8.5-2.4,11.9-5.6
		c2.5-2.4,5.1-4.6,8-6.5c0.4-0.3,0.9-0.6,1.4-0.8c0.2-0.1,0.6-0.1,0.8-0.1c-0.1,0.3,0,0.6-0.2,0.8c-0.6,0.8-1.1,1.6-1.8,2.3
		C100.2,8.7,96,14,92.1,19.5c-4.3,6-8.4,12.2-12,18.6c-5.6,9.8-10.3,20-13.6,30.7c-0.9,3-1.6,6-2.3,9c-0.3,1.4-1.1,2.6-1.9,3.8
		c-3.1,4.3-6.6,8.1-10.7,11.4c-0.5,0.4-1.1,0.8-1.7,1.1c-0.7,0.4-1,0.2-1.4-0.4c-2.6-4.4-5.2-8.9-7.7-13.3
		C34.5,69.3,28.6,58,23.1,46.5c-2.2-4.6-4.3-9.2-6.5-13.7c-0.3-0.6-0.6-1.1-0.9-1.7c-0.3-0.6-0.8-0.9-1.5-1.1
		c-2.6-0.6-5.2-0.6-7.8-0.4C5.6,29.6,4.8,29.7,3.9,29.8z M34.9,28.5c0.1,0.3,0.1,0.5,0.2,0.7c1,2.6,1.9,5.2,3,7.7
		c3.6,8.2,7.9,16,12.6,23.6c1.5,2.4,3.1,4.6,4.8,6.9c0.8,1.1,1.2,1,1.9-0.1c0.9-1.3,1.7-2.6,2.4-4c3.3-6.5,6.4-13,9.7-19.4
		c2.6-5.1,5.3-10.1,8.6-14.8c0.2-0.3,0.4-0.6,0.7-1.1c-1.3-0.1-2.4-0.3-3.6-0.3c-5.5-0.1-11.1-0.3-16.6-0.2c-7,0.1-14,0.4-21.1,0.7
		C36.7,28.2,35.8,28.4,34.9,28.5z"/>
	<path class="st0" d="M56.9,63.1c-0.5-0.6-0.9-1.2-1.3-1.8c-4.2-6.4-8.1-13-11.8-19.8c-1.4-2.7-2.7-5.4-4-8.2
		c-0.2-0.4-0.3-0.9-0.4-1.4c-0.1-0.5,0.1-0.7,0.6-0.8c0.8-0.1,1.1,0,1.5,0.7c4,7.2,7.9,14.3,11.9,21.5c1.4,2.5,2.7,5,4.1,7.5
		C57.8,61.7,57.6,62.5,56.9,63.1z"/>
</g>
</svg>

