<?xml version="1.0" encoding="UTF-8" ?>
<!DOCTYPE svg PUBLIC "-//W3C//DTD SVG 1.1//EN" "http://www.w3.org/Graphics/SVG/1.1/DTD/svg11.dtd">
<svg width="12px" height="12px" viewBox="0 0 108 95" version="1.1" xmlns="http://www.w3.org/2000/svg">
<path fill-opacity="0" d=" M 0.00 0.00 L 104.46 0.00 C 100.36 3.01 96.53 6.38 92.44 9.41 C 90.49 10.99 87.88 11.07 85.49 11.27 C 68.66 12.18 51.80 11.59 34.98 10.90 C 27.15 11.10 19.08 10.62 11.42 12.36 C 7.27 17.47 3.57 22.99 0.21 28.65 C 4.28 28.48 8.42 27.58 12.46 28.37 C 17.05 35.08 20.53 42.51 24.48 49.61 C 30.70 62.20 38.26 74.11 44.06 86.92 C 45.35 89.69 46.82 92.37 48.37 95.00 L 0.00 95.00 L 0.00 0.00 Z" />
<path fill="#000000" d=" M 104.46 0.00 L 107.43 0.00 C 102.43 5.90 98.44 12.57 93.33 18.38 C 87.21 27.15 82.06 36.56 77.00 45.97 C 70.79 57.33 66.47 69.73 64.14 82.45 C 60.49 87.06 55.41 90.42 51.65 95.00 L 48.37 95.00 C 46.82 92.37 45.35 89.69 44.06 86.92 C 38.26 74.11 30.70 62.20 24.48 49.61 C 20.53 42.51 17.05 35.08 12.46 28.37 C 8.42 27.58 4.28 28.48 0.21 28.65 C 3.57 22.99 7.27 17.47 11.42 12.36 C 19.08 10.62 27.15 11.10 34.98 10.90 C 51.80 11.59 68.66 12.18 85.49 11.27 C 87.88 11.07 90.49 10.99 92.44 9.41 C 96.53 6.38 100.36 3.01 104.46 0.00 Z" />
<path fill-opacity="0" d=" M 107.43 0.00 L 108.00 0.00 L 108.00 95.00 L 51.65 95.00 C 55.41 90.42 60.49 87.06 64.14 82.45 C 66.47 69.73 70.79 57.33 77.00 45.97 C 82.06 36.56 87.21 27.15 93.33 18.38 C 98.44 12.57 102.43 5.90 107.43 0.00 Z" />
<path fill="#ffffff" d=" M 58.74 27.72 C 65.64 27.14 72.60 27.59 79.46 26.48 C 71.30 39.62 64.37 53.47 57.47 67.30 C 54.03 63.23 52.39 57.99 49.21 53.71 C 44.32 45.06 39.42 36.41 34.68 27.67 C 42.69 28.03 50.73 28.34 58.74 27.72 Z" />
<path fill="#000000" d=" M 37.71 28.53 C 38.50 28.57 40.07 28.66 40.85 28.70 C 45.40 37.52 50.29 46.15 55.17 54.79 C 56.73 57.68 59.42 60.56 58.24 64.12 C 55.77 61.60 54.29 58.37 52.59 55.34 C 47.56 46.44 42.72 37.44 37.71 28.53 Z" />
</svg>
